# xmcd
#
# Track frame offsets: 
#        150
#        27807
#        45457
#        64163
#        86670
#        100552
#        111110
#        124992
#        141362
#        150916
#        162535
#        175205
#        184291
#        197771
#        208659
#        220845
#        234332
#        247422
#
# Disc length: 3461 seconds
#
# Revision: 1
# Processed by: cddbd v1.5.2PL0 Copyright (c) Steve Scherf et al.
# Submitted via: ExactAudioCopyFreeDBPlugin 1.0
#
DISCID=010d8312
DTITLE=Various Artist - The Best Of Mississippi Blues
DYEAR=2007
DGENRE=Blues
TTITLE0=Mississippi Fred McDowell - Levee Camp Blues
TTITLE1=Mississippi John Hurt - Casey Jones
TTITLE2=Son House - Death Letter
TTITLE3=Big Joe Williams - Baby Please Don't Go
TTITLE4=Charley Patton - Screamin' and Hollerin' Blues
TTITLE5=Arthur "Big Boy" Crudup - That's All Right Mama
TTITLE6=Sonny Boy Williamson - Steady Rollin' Man
TTITLE7=Tommy Johnson - Canned Heat Blues
TTITLE8=Sonny Boy Nelson - Pony Blues
TTITLE9=Snooky Pryor - Stop The Train Conductor
TTITLE10=Kid Bailey - Mississippi Bottom Blues
TTITLE11=Memphis Slim - I Wonder What's The Matter
TTITLE12=Rev. Robert Wilkins - Ain't No Way To Get Along
TTITLE13=Ike Turner - Matchbox
TTITLE14=Robert Lockwood, Jr. - Take A Little Walk With Me
TTITLE15=Muddy Waters - I Got My Mojo Working
TTITLE16=Otis Spann - It Must Have Been The Devil
TTITLE17=Clarence "Gatemouth" Brown - Leftover Blues
EXTD=
EXTT0=
EXTT1=
EXTT2=
EXTT3=
EXTT4=
EXTT5=
EXTT6=
EXTT7=
EXTT8=
EXTT9=
EXTT10=
EXTT11=
EXTT12=
EXTT13=
EXTT14=
EXTT15=
EXTT16=
EXTT17=
PLAYORDER=
